<mxfile host="app.diagrams.net" modified="2024-07-07T08:59:14.874Z" agent="Mozilla/5.0 (Windows NT 10.0; Win64; x64; rv:128.0) Gecko/20100101 Firefox/128.0" version="24.6.4" etag="VOyeUih9YujTZruuAUcz" type="github">
  <diagram name="Page-1" id="vzhOR2eHgaGLr1CNi9pj">
    <mxGraphModel>
      <root>
        <mxCell id="0" />
        <mxCell id="1" parent="0" />
      </root>
    </mxGraphModel>
  </diagram>
</mxfile>
